<?xml version="1.0" encoding="utf-8"?>
<svg
	version="1.1"
	xmlns="http://www.w3.org/2000/svg"
	xmlns:xlink="http://www.w3.org/1999/xlink"
	x="0%" y="0%"
	width="100%" height="100%"
	viewBox="0 0 720.0 720.0"
	enable-background="new 0 0 720.0 720.0"
	xml:space="preserve">
<defs>
	<radialGradient id="fillGrad0" cx="51.616%" cy="51.788%" fx="51.616%" fy="51.788%" r="42.300%">
   		<stop offset="0.000%" style="stop-color:rgb(103,191,255);stop-opacity:1.000" />
		<stop offset="100.000%" style="stop-color:rgb(18,117,255);stop-opacity:1.000" />
	</radialGradient>

</defs>
	<path
		transform = "rotate(-24.13 360.00 359.89)"
		fill="url(#fillGrad0)"
		stroke="#000000"
		fill-opacity="1.0"
		stroke-opacity="0.0"
		fill-rule="nonzero"
		stroke-width="0.0"
		stroke-linejoin="miter"
		stroke-linecap="square"
		d="M360.00,-0.11C558.82,-0.11,720.00,161.07,720.00,359.89C720.00,558.71,558.82,719.89,360.00,719.89C161.18,719.89,-0.00,558.71,-0.00,359.89C-0.00,161.07,161.18,-0.11,360.00,-0.11z"/>
	<path
		fill="#111111"
		stroke="#000000"
		fill-opacity="0.424"
		stroke-opacity="0.0"
		fill-rule="nonzero"
		stroke-width="0.0"
		stroke-linejoin="miter"
		stroke-linecap="square"
		d="M360.68,205.52C264.95,199.07,186.69,199.87,-3.89,226.37L5.63,218.33C146.44,195.93,237.31,182.09,359.09,189.39L360.68,205.52z"/>
	<path
		fill="#111111"
		stroke="#000000"
		fill-opacity="0.424"
		stroke-opacity="0.0"
		fill-rule="nonzero"
		stroke-width="0.0"
		stroke-linejoin="miter"
		stroke-linecap="square"
		d="M368.16,233.25C286.08,233.72,170.76,264.42,67.72,320.59L73.86,311.61C214.30,230.17,312.01,217.78,363.70,216.77L368.16,233.25z"/>
	<path
		fill="#111111"
		stroke="#000000"
		fill-opacity="0.424"
		stroke-opacity="0.0"
		fill-rule="nonzero"
		stroke-width="0.0"
		stroke-linejoin="miter"
		stroke-linecap="square"
		d="M677.75,693.73C649.09,578.86,581.54,494.72,456.66,481.81C302.52,471.34,303.44,320.08,391.20,276.24Q366.21,235.75,361.40,184.98C288.66,151.33,170.76,130.36,1.71,127.69L9.25,124.28C186.69,120.10,315.11,139.98,376.19,175.83C372.44,238.33,395.46,264.75,462.00,266.86Q503.25,274.91,517.13,286.43Q518.35,284.09,516.44,276.24Q527.17,291.47,541.30,297.68Q543.03,292.57,537.67,282.34Q551.91,300.15,567.06,310.10L565.18,295.77Q579.00,306.74,587.22,321.93L604.19,321.08L626.17,353.66L619.14,357.13L606.85,339.01L606.85,346.41C637.13,363.45,628.92,371.22,659.24,378.55Q640.61,385.27,638.64,395.21Q629.45,379.13,586.07,355.67Q574.08,349.58,577.67,333.55C538.10,314.92,490.85,292.57,446.19,289.36C351.82,289.36,303.44,440.62,468.49,460.51C640.61,475.48,695.71,523.80,714.18,615.08C662.98,498.07,593.70,506.17,566.94,493.60C646.49,545.45,685.22,644.83,677.75,693.73z"/>
	<path
		fill="#111111"
		stroke="#000000"
		fill-opacity="0.424"
		stroke-opacity="0.0"
		fill-rule="nonzero"
		stroke-width="0.0"
		stroke-linejoin="miter"
		stroke-linecap="square"
		d="M593.41,317.30L601.87,314.24Q543.03,253.62,457.56,229.17Q549.61,267.75,593.41,317.30z"/>
	<path
		fill="#FFFFFF"
		stroke="#000000"
		fill-opacity="1.000"
		stroke-opacity="0.0"
		fill-rule="nonzero"
		stroke-width="0.0"
		stroke-linejoin="miter"
		stroke-linecap="square"
		d="M362.12,189.39C266.39,182.93,188.12,183.73,-2.45,210.23L7.07,202.19C147.88,179.79,238.75,165.96,360.53,173.25L362.12,189.39z"/>
	<path
		fill="#FFFFFF"
		stroke="#000000"
		fill-opacity="1.000"
		stroke-opacity="0.0"
		fill-rule="nonzero"
		stroke-width="0.0"
		stroke-linejoin="miter"
		stroke-linecap="square"
		d="M369.60,217.11C287.51,217.59,172.20,248.28,69.16,304.45L75.30,295.47C215.74,214.04,313.45,201.64,365.14,200.63L369.60,217.11z"/>
	<path
		fill="#FFFFFF"
		stroke="#000000"
		fill-opacity="1.000"
		stroke-opacity="0.0"
		fill-rule="nonzero"
		stroke-width="0.0"
		stroke-linejoin="miter"
		stroke-linecap="square"
		d="M679.19,677.59C650.53,562.72,582.98,478.58,458.10,465.67C303.96,455.21,304.88,303.94,392.64,260.11Q367.65,219.62,362.84,168.84C290.10,135.19,172.20,114.23,3.14,111.55L10.69,108.15C188.12,103.96,316.55,123.84,377.63,159.69C373.88,222.19,396.90,248.62,463.44,250.72Q504.69,258.78,518.57,270.30Q519.79,267.96,517.88,260.11Q528.61,275.33,542.74,281.54Q544.46,276.43,539.11,266.21Q553.34,284.01,568.50,293.96L566.62,279.63Q580.44,290.60,588.66,305.79L605.63,304.94L627.61,337.52L620.58,340.99L608.28,322.88L608.28,330.27C638.57,347.32,630.36,355.09,660.68,362.41Q642.05,369.14,640.08,379.07Q630.89,363.00,587.51,339.53Q575.51,333.44,579.11,317.41C539.54,298.78,492.29,276.43,447.63,273.22C353.25,273.22,304.88,424.48,469.93,444.37C642.05,459.34,697.15,507.66,715.62,598.94C664.42,481.94,595.14,490.03,568.38,477.46C647.93,529.31,686.65,628.70,679.19,677.59z"/>
	<path
		fill="#FFFFFF"
		stroke="#000000"
		fill-opacity="1.000"
		stroke-opacity="0.0"
		fill-rule="nonzero"
		stroke-width="0.0"
		stroke-linejoin="miter"
		stroke-linecap="square"
		d="M594.85,301.16L603.31,298.11Q544.46,237.48,459.00,213.03Q551.05,251.62,594.85,301.16z"/>
	<path
		fill="#3F3F3F"
		stroke="#000000"
		fill-opacity="0.220"
		stroke-opacity="0.0"
		fill-rule="nonzero"
		stroke-width="0.0"
		stroke-linejoin="miter"
		stroke-linecap="square"
		d="M212.86,31.45C394.31,-49.82,607.29,31.40,688.55,212.86C769.82,394.31,688.60,607.29,507.14,688.55C325.69,769.82,112.71,688.60,31.44,507.14C-49.82,325.69,31.40,112.71,212.86,31.45zM138.48,623.46C290.80,751.53,513.45,737.40,635.79,591.89C758.14,446.39,733.84,224.61,581.52,96.54C429.21,-31.53,206.55,-17.40,84.21,128.11C-38.14,273.61,-13.84,495.39,138.48,623.46z"/>
</svg>